<?xml version="1.0" encoding="UTF-8" standalone="no"?>
<!-- Created with Inkscape (http://www.inkscape.org/) -->

<svg
   xmlns:dc="http://purl.org/dc/elements/1.1/"
   xmlns:cc="http://creativecommons.org/ns#"
   xmlns:rdf="http://www.w3.org/1999/02/22-rdf-syntax-ns#"
   xmlns:svg="http://www.w3.org/2000/svg"
   xmlns="http://www.w3.org/2000/svg"
   xmlns:sodipodi="http://sodipodi.sourceforge.net/DTD/sodipodi-0.dtd"
   xmlns:inkscape="http://www.inkscape.org/namespaces/inkscape"
   width="88.19445mm"
   height="38.805557mm"
   viewBox="0 0 88.19445 38.805557"
   version="1.1"
   id="svg8"
   inkscape:version="0.92.3 (2405546, 2018-03-11)"
   sodipodi:docname="datalad.svg"
   inkscape:export-filename="/home/pbellec/git/cneuromod.ca/content/posts/release_2020alpha/datalad_logo.png"
   inkscape:export-xdpi="144.07076"
   inkscape:export-ydpi="144.07076">
  <defs
     id="defs2">
    <clipPath
       clipPathUnits="userSpaceOnUse"
       id="clipPath4627">
      <g
         inkscape:label="Clip"
         id="use4629">
        <path
           sodipodi:nodetypes="ccccccccccc"
           inkscape:connector-curvature="0"
           id="path22"
           d="m 123.98044,138.70547 v -1.50339 l 2.3219,-2.3219 2.2718,2.27179 v 16.32014 h -4.5937 v -1.23612 c -1.15389,0.83878 -2.28197,1.69907 -4.47676,1.67043 -6.09122,-0.27157 -7.88324,-4.29718 -7.91786,-8.51921 -0.0557,-1.26953 0.59974,-8.15506 7.95126,-8.21854 2.41371,-0.0233 3.8208,0.9035 4.44336,1.5368 z"
           style="fill:#ffa200;fill-opacity:1;stroke:none;stroke-width:0.26458332px;stroke-linecap:butt;stroke-linejoin:miter;stroke-opacity:1" />
        <ellipse
           ry="4.8776689"
           rx="4.4767647"
           cy="145.38721"
           cx="119.53709"
           id="ellipse24"
           style="fill:#000000;fill-opacity:1;stroke:none;stroke-width:0.26458332" />
      </g>
    </clipPath>
  </defs>
  <sodipodi:namedview
     id="base"
     pagecolor="#000000"
     bordercolor="#666666"
     borderopacity="1.0"
     inkscape:pageopacity="0"
     inkscape:pageshadow="2"
     inkscape:zoom="1.4"
     inkscape:cx="507.42886"
     inkscape:cy="60.631881"
     inkscape:document-units="mm"
     inkscape:current-layer="layer1"
     showgrid="false"
     fit-margin-top="0"
     fit-margin-left="0"
     fit-margin-right="0"
     fit-margin-bottom="0"
     showguides="true"
     inkscape:guide-bbox="true"
     inkscape:snap-bbox="true"
     inkscape:snap-global="false"
     inkscape:window-width="2493"
     inkscape:window-height="1025"
     inkscape:window-x="1507"
     inkscape:window-y="1507"
     inkscape:window-maximized="1">
    <sodipodi:guide
       position="42.362222,13.764381"
       orientation="1,0"
       id="guide4601"
       inkscape:locked="false" />
    <sodipodi:guide
       position="46.905804,12.995981"
       orientation="1,0"
       id="guide4603"
       inkscape:locked="false" />
    <sodipodi:guide
       position="50.747803,4.8442602"
       orientation="1,0"
       id="guide4605"
       inkscape:locked="false" />
    <sodipodi:guide
       position="52.11756,12.361216"
       orientation="1,0"
       id="guide4609"
       inkscape:locked="false" />
    <sodipodi:guide
       position="60.03542,16.704346"
       orientation="0,1"
       id="guide4611"
       inkscape:locked="false" />
    <sodipodi:guide
       position="64.512184,15.83572"
       orientation="1,0"
       id="guide4613"
       inkscape:locked="false" />
    <sodipodi:guide
       position="69.055767,15.902537"
       orientation="1,0"
       id="guide4615"
       inkscape:locked="false" />
    <sodipodi:guide
       position="83.627235,21.450149"
       orientation="1,0"
       id="guide857"
       inkscape:locked="false" />
  </sodipodi:namedview>
  <metadata
     id="metadata5">
    <rdf:RDF>
      <cc:Work
         rdf:about="">
        <dc:format>image/svg+xml</dc:format>
        <dc:type
           rdf:resource="http://purl.org/dc/dcmitype/StillImage" />
        <dc:title></dc:title>
      </cc:Work>
    </rdf:RDF>
  </metadata>
  <g
     inkscape:label="Layer 1"
     inkscape:groupmode="layer"
     id="layer1"
     transform="translate(-59.468258,-115.06746)">
    <path
       style="fill:#ffa200;stroke:none;stroke-width:0.26458332px;stroke-linecap:butt;stroke-linejoin:miter;stroke-opacity:1;fill-opacity:1"
       d="m 59.468258,115.06746 h 5.813112 l -2.364346,2.36435 2.14719,2.14719 v 12.67859 h 3.290756 l 2.104747,2.10475 -2.221678,2.22168 h -8.736372 z"
       id="path3794"
       inkscape:connector-curvature="0" />
    <path
       style="fill:#ffa200;stroke:none;stroke-width:0.26458332px;stroke-linecap:butt;stroke-linejoin:miter;stroke-opacity:1;fill-opacity:1"
       d="m 101.83048,135.49824 2.40542,2.40542 2.13816,-2.13815 v 12.66189 c 0,0.98314 0.88868,1.69862 1.67044,1.67044 h 2.17156 v 3.74177 h -3.842 c -2.70564,-0.0416 -4.54358,-3.08129 -4.54358,-4.54358 z"
       id="path4607"
       inkscape:connector-curvature="0"
       sodipodi:nodetypes="cccccccccc" />
    <path
       style="fill:#ffa200;fill-opacity:1;stroke:none;stroke-width:0.99999994px;stroke-linecap:butt;stroke-linejoin:miter;stroke-opacity:1"
       d="M 252.60156 74.882812 L 243.82617 83.658203 L 243.82617 89.339844 C 241.47319 86.946269 236.15393 83.443187 227.03125 83.53125 C 199.24598 83.771174 196.76995 109.79553 196.98047 114.59375 C 197.11132 130.55103 203.88432 145.76656 226.90625 146.79297 C 235.20152 146.90121 239.46501 143.64871 243.82617 140.47852 L 243.82617 145.15234 L 261.1875 145.15234 L 261.1875 83.46875 L 252.60156 74.882812 z M 228.90625 96.158203 A 15.045055 18.435284 0 0 1 243.95117 114.59375 A 15.045055 18.435284 0 0 1 228.90625 133.0293 A 15.045055 18.435284 0 0 1 213.86133 114.59375 A 15.045055 18.435284 0 0 1 228.90625 96.158203 z "
       transform="matrix(0.26458333,0,0,0.26458333,59.468258,115.06746)"
       id="path4617" />
    <path
       style="fill:#ffa200;fill-opacity:1;stroke:none;stroke-width:0.99999994px;stroke-linecap:butt;stroke-linejoin:miter;stroke-opacity:1"
       d="M 324.57422 56.826172 L 316.17773 65.222656 L 316.17773 90.476562 C 308.20471 82.203744 301.87338 82.622776 296.98438 82.521484 C 277.93968 82.521484 269.45898 99.699029 269.45898 113.96289 C 269.21033 138.83524 285.1773 146.27645 297.86914 146.54102 C 305.6315 146.48066 309.70703 145.74499 316.30469 137.82812 L 316.30469 145.15234 L 333.09766 145.15234 L 333.09766 65.349609 L 324.57422 56.826172 z M 301.61328 97.1875 A 14.20527 17.958988 0 0 1 315.13086 113.83008 L 315.16797 115.12891 A 14.20527 17.958988 0 0 1 301.21875 133.08398 A 14.20527 17.958988 0 0 1 286.76562 115.77734 A 14.20527 17.958988 0 0 1 300.19336 97.195312 A 14.20527 17.958988 0 0 1 301.61328 97.1875 z "
       transform="matrix(0.26458333,0,0,0.26458333,59.468258,115.06746)"
       id="path31" />
    <path
       style="fill:#ffa200;stroke:none;stroke-width:0.26458332px;stroke-linecap:butt;stroke-linejoin:miter;stroke-opacity:1;fill-opacity:1"
       d="m 143.14274,131.19445 v -1.96076 l 2.24423,-2.24423 2.22061,2.22061 v 1.88988 l -2.18518,-2.18517 z"
       id="path859"
       inkscape:connector-curvature="0" />
    <path
       style="fill:#ffa200;fill-opacity:1;stroke:none;stroke-width:0.26458332px;stroke-linecap:butt;stroke-linejoin:miter;stroke-opacity:1"
       d="m 143.15455,128.07614 v -1.96076 l 2.24423,-2.24423 2.22061,2.22061 v 1.88988 l -2.18518,-2.18517 z"
       id="path859-3"
       inkscape:connector-curvature="0" />
    <path
       style="fill:#ffffff;stroke:none;stroke-width:0.99999994px;stroke-linecap:butt;stroke-linejoin:miter;stroke-opacity:1"
       d="M 32.455078 0.19335938 L 23.972656 8.6757812 L 33.572266 18.273438 L 33.574219 18.28125 A 25.329452 22.857144 0 0 1 58.732422 41.130859 A 25.329452 22.857144 0 0 1 42.318359 62.513672 L 42.380859 62.833984 L 51.189453 70.964844 L 45.267578 81.220703 C 55.006767 78.890889 78.207405 74.47708 79.732422 40.416016 C 79.732422 16.351008 65.675558 6.4432995 47.767578 0.19335938 L 32.455078 0.19335938 z "
       transform="matrix(0.26458333,0,0,0.26458333,59.468258,115.06746)"
       id="path26" />
    <path
       style="fill:#ffffff;stroke:none;stroke-width:0.26458332px;stroke-linecap:butt;stroke-linejoin:miter;stroke-opacity:1;fill-opacity:1"
       d="m 101.80159,115.50843 h 4.86644 v 4.86645 h 3.77977 v 3.82701 h -3.82701 v 10.91406 l -2.36236,2.36235 -2.48046,-2.48047 z"
       id="path836"
       inkscape:connector-curvature="0" />
    <path
       style="fill:#ffffff;stroke:none;stroke-width:0.99999994px;stroke-linecap:butt;stroke-linejoin:miter;stroke-opacity:1"
       d="M 114.83594 18.773438 C 94.223793 18.773438 83.852899 31.315032 83.855469 49.84375 C 83.91254 64.173678 91.981055 84.001339 114.48047 83.683594 C 120.20853 83.404287 126.22161 82.839461 130.73047 77.878906 L 130.73047 82.253906 L 148.49805 82.253906 C 148.85521 80.646776 148.49805 20.201172 148.49805 20.201172 L 131.08594 20.201172 L 131.08594 23.058594 C 128.10431 21.237277 125.03061 19.431378 114.83594 18.773438 z M 117.42969 34.539062 A 14.394673 15.909903 0 0 1 131.82422 50.449219 A 14.394673 15.909903 0 0 1 117.42969 66.359375 A 14.394673 15.909903 0 0 1 103.03516 50.449219 A 14.394673 15.909903 0 0 1 117.42969 34.539062 z "
       transform="matrix(0.26458333,0,0,0.26458333,59.468258,115.06746)"
       id="path838" />
    <path
       inkscape:connector-curvature="0"
       style="fill:#ffffff;stroke:none;stroke-width:0.26458332px;stroke-linecap:butt;stroke-linejoin:miter;stroke-opacity:1"
       d="m 119.56223,119.96166 c -5.45363,0 -8.1976,3.3183 -8.19692,8.22069 0.0151,3.79146 2.1499,9.03753 8.10287,8.95346 1.51555,-0.0739 3.10651,-0.22335 4.29948,-1.53583 v 1.14085 l 2.56766,-2.37202 2.25027,2.22168 c 0.0945,-0.42522 -0.11693,-16.25108 -0.11693,-16.25108 h -4.60695 v 0.75603 c -0.78889,-0.48189 -1.60214,-0.9597 -4.29948,-1.13378 z m 0.68626,4.17132 c 2.10344,2e-5 3.80859,1.88471 3.80856,4.20956 4e-5,2.32486 -1.70512,4.20955 -3.80856,4.20957 -2.10344,-2e-5 -3.80859,-1.88472 -3.80855,-4.20957 -3e-5,-2.32485 1.70512,-4.20954 3.80855,-4.20956 z"
       id="path838-3"
       sodipodi:nodetypes="cccccccccccccccc" />
  </g>
</svg>
